<svg width="250" height="250" version="1.1" id="Слой_2" xmlns="http://www.w3.org/2000/svg" xmlns:xlink="http://www.w3.org/1999/xlink" x="0px" y="0px"
viewBox="0 0 1227 850" style="enable-background:new 0 0 1227 850;" xml:space="preserve">
	<style type="text/css">
		.st0 {
			fill: rgb(86, 61, 124);
			opacity: 0;
		}

		#spine1, #spine2, #spine3, #spine4, #spine5, #spine6,
		#spine7, #spine8, #hand1, #hand2, #back, #to, #m, #y,
		#s, #e, #l, #f {
			-webkit-animation-duration: 0.3s;
			        animation-duration: 0.3s;
			-webkit-animation-fill-mode: forwards;
			        animation-fill-mode: forwards;
			-webkit-animation-iteration-count: 1;
			        animation-iteration-count: 1;
			-webkit-animation-name: appearance;
			        animation-name: appearance;
		}

		#spine1 {
			-webkit-animation-delay: .15s;
			        animation-delay: .15s;
		}

		#spine2 {
			-webkit-animation-delay: .3s;
			        animation-delay: .3s;
		}

		#spine3 {
			-webkit-animation-delay: .45s;
			        animation-delay: .45s;
		}

		#spine4 {
			-webkit-animation-delay: .6s;
			        animation-delay: .6s;
		}

		#spine5 {
			-webkit-animation-delay: .75s;
			        animation-delay: .75s;
		}

		#spine6 {
			-webkit-animation-delay: .9s;
			        animation-delay: .9s;
		}

		#spine7 {
			-webkit-animation-delay: 1.05s;
			        animation-delay: 1.05s;
		}

		#spine8 {
			-webkit-animation-delay: 1.2s;
			        animation-delay: 1.2s;
		}

		#hand1 {
			-webkit-animation-delay: 1.35s;
			        animation-delay: 1.35s;
		}

		#hand2 {
			-webkit-animation-delay: 1.5s;
			        animation-delay: 1.5s;
		}

		#back {
			-webkit-animation-delay: 1.65s;
			        animation-delay: 1.65s;
		}

		#to {
			-webkit-animation-delay: 1.8s;
			        animation-delay: 1.8s;
		}

		#m {
			-webkit-animation-delay: 1.95s;
			        animation-delay: 1.95s;
		}
		
		#y {
			-webkit-animation-delay: 2.1s;
			        animation-delay: 2.1s;
		}
		
		#s {
			-webkit-animation-delay: 2.25s;
			        animation-delay: 2.25s;
		}

		#e {
			-webkit-animation-delay: 2.4s;
			        animation-delay: 2.4s;
		}

		#l {
			-webkit-animation-delay: 2.55s;
			        animation-delay: 2.55s;
		}

		#f {
			-webkit-animation-delay: 2.7s;
			        animation-delay: 2.7s;
		}

		@-webkit-keyframes appearance {
			from {
				opacity: 0;
			}

			to {
				opacity: 1;
			}
		}

		@keyframes appearance {
			from {
				opacity: 0;
			}

			to {
				opacity: 1;
			}
		}
	</style>
	<path id="hand1" class="st0" d="M386,213c3,8,9,1,9,1c42-74,28-190,28-190s2-17,14-17s16,9,16,9c20,68-2,155-2,155c2,9,9,4,9,4
		c24-80,6-142,6-142s0-15,12-17s18,6,18,6s28,81-6,189c-2.42,7.69,9,3,9,3l2-4c26-59,13-109,15-124s24-17,30-4s8,63,8,63s0,0-3,28
		s-20,78-21,80s4,7,9,1s21-59,21-72s26-20,29,0s0,36,0,36s-2,30-43,109s-62,155-62,155c-21,47-59,20-59,20c-173-150-50-375-50-375
		s8-12,19-8s11,12,11,12c3,30-18,76-19,78S386,213,386,213"/>
	<path id="hand2" class="st0" d="M212.91,539.58c-1.57,8.4-8.69,2.55-8.69,2.55c-54.21-65.58-60.57-182.25-60.57-182.25
		s-4.92-16.39-16.74-14.31c-11.82,2.08-14.19,11.64-14.19,11.64c-7.89,70.44,28.89,152.3,28.89,152.3c-0.41,9.21-8.17,5.5-8.17,5.5
		c-37.53-74.62-30.57-138.8-30.57-138.8s-2.6-14.77-14.77-14.66s-16.68,9.03-16.68,9.03s-13.51,84.63,38.73,185.09
		c3.72,7.15-8.34,4.52-8.34,4.52l-2.66-3.59c-35.85-53.59-31.73-105.09-36.3-119.51c-4.57-14.42-26.59-12.57-30.24,1.27
		s3.06,63.43,3.06,63.43s0,0,7.82,27.05c7.82,27.05,33.24,73.34,34.57,75.14c1.33,1.8-2.72,7.59-8.69,2.55
		c-5.97-5.04-30.93-54.46-33.18-67.26c-2.26-12.8-29.08-15.18-28.56,5.04s6.25,35.45,6.25,35.45s7.18,29.2,61.27,99.88
		s87.97,141.88,87.97,141.88c28.84,42.64,61.58,9.45,61.58,9.45c144.32-177.76-15.88-377.99-15.88-377.99s-9.96-10.43-20.1-4.58
		s-8.75,13.73-8.75,13.73c2.26,30.07,30.92,71.72,32.26,73.52C213.55,537.44,212.91,539.58,212.91,539.58"/>
	<path id="spine8" class="st0" d="M339,720c2-2,7-1,7-1c5,0,10,3,10,3c4,2,2,6,2,6c-13,20-34,34-34,34c-6.33,2-8.67,0-7-6
		C317,756,332,742,339,720z"/>
	<path id="spine7" class="st0" d="M345,679c0,0,1,7,7,11s17,3,17,3s6-1,7-6s5-20,5-42c0,0,1-7-5-9s-27-7-27-7c-5-1.17-7.67,0.83-8,6
		C341,635,344,658,345,679z"/>
	<path id="spine6" class="st0" d="M364,546c0,0,10,23,13,51c0.84,4.62-2.01,6.48-8,6l-35-9c-4.22-1.49-7.26-4.12-9-8
		c-5.07-15.31-12.28-31.02-21-47c-5.02-7.07-3.28-11.37,5-13l45,12C360.04,539.56,363.38,542.22,364,546z"/>
	<path id="spine5" class="st0" d="M255,430c-1.75-9.67,2.25-13.33,12-11l46,12c3.97,0.95,6.45,2.72,8,5c7.27,17.69,14.96,36.43,23,56
		c2.67,7,0.16,10.77-8,11l-48-12c-3.33-0.57-6.31-2.64-9-6C269.79,467.43,261.77,449.11,255,430z"/>
	<path id="spine4" class="st0" d="M228,333c-0.5-10,4.17-14.33,14-13l32,8c7.04,1.68,11.05,5.58,13,11l14,44
		c1.68,8.56-1.57,12.31-10,11l-47-11c-3.95-1.13-6.49-3.31-7-7C232.84,362.19,229.84,347.86,228,333z"/>
	<path id="spine3" class="st0" d="M246,228c-7-0.67-11.67,1.67-14,7c0,0-5,18-5,38c0.81,6.75,3.44,11.12,8,13l26,8
		c10.67,0.67,17-3.67,19-13v-35c-0.41-5.34-3.4-8.77-8-11L246,228z"/>
	<path id="spine2" class="st0" d="M268,152c-7.22,9.22-13.56,20.22-19,33c-0.98,6.63-0.39,11.43,3,13c6.48,3.39,12.81,5.36,19,6
		c8.95,0.48,15.94-2.02,20-9c2.57-11.08,6.56-21.75,12-32c2.15-5.62,0.91-9.85-3-13l-14-4C277,145.16,271.22,147.36,268,152z"/>
	<path id="spine1" class="st0" d="M303,112c17.71-16.92,37.64-30.35,60-40c4.64,0,6.51,1.39,4,5c-14.24,12.46-26.59,26.12-37,41
		c-6.02,6.89-15,6.83-26,2C300.97,118.08,301.03,115.3,303,112z"/>
	<path id="back" class="st0" d="M532,638c0.49,9.86-3.9,18.42-12,26c-5.72,4.7-14.07,7.35-25,8h-56V553h53c12.39-0.97,22,3.47,29,13
		c6.24,9.88,6.79,19.54,2,29c-4.15,7.4-10.25,12.06-19,13v1c7.45,1.37,13.77,4.06,19,8C528.6,622.43,531.85,629.28,532,638z
		M506,649c5.23-7.66,5.16-15.33,1-23c-3.97-4.7-9.43-7.17-16-8h-30v38h26C496.01,655.32,502.65,653.17,506,649z M502,595
		c3.8-6.1,3.54-12.45,0-19c-3.84-4.42-9.17-6.75-16-7h-25v34h23C492.25,602.63,498.2,599.91,502,595z"/>
	<path id="back" class="st0" d="M619,553l42,119h-23l-10-31h-44l-10,31h-22l42-119H619z M624,625l-17-51h-1l-17,51H624z"/>
	<path id="back" class="st0" d="M769,593h21c-0.29-7.39-2.38-13.66-6-19c-5.02-8.6-11.84-14.36-20-18c-9.22-4.01-18.87-5.76-29-5
	c-9.86-0.23-18.86,2.43-27,8c-9.09,5.98-15.77,14.31-20,25c-5.03,13.34-6.29,28.86-3,47c3.7,15.41,10.72,26.72,21,34
	c13.78,9.06,29.22,11.3,46,8c22.15-5.22,35.29-18.15,38-40h-21c-2.32,11.64-9.2,19.09-21,22c-13.84,3.33-24.85,0.03-33-10
	c-7.28-8.23-10.74-20.75-10-38c1.43-15.29,6.48-26.61,16-33c10.54-6.89,22.5-7.11,36,0C764.22,579.78,768.22,586.11,769,593"/>
	<path id="back" class="st0" d="M820,553v120h21v-39l12-14l39,52h26l-50-66c1-1,46-53,46-53h-24l-48,56h-1v-56H820z"/>
	<polygon id="to" class="st0" points="987,571 1023,571 1023,672 1045,672 1045,571 1081,571 1081,553 987,553 	"/>
	<path id="to" class="st0" d="M1214,585c6.13,19.13,5.87,37.43,0,55c-6.76,17.04-18.61,26.99-34,32c-16.08,4.28-31.76,3.16-47-4
	c-11.06-6.63-19.21-16.16-24-29c-5-16.1-5.92-31.79-2-47c5.67-20.17,17.67-33.17,36-39c14.2-3.48,27.87-3.2,41,1
	C1199.44,560.47,1208.85,571.22,1214,585z M1194,631c3.57-12.77,3.43-25.09,0-37c-3.45-10.79-9.73-18.83-20-23
	c-8.23-2.95-16.57-2.88-25,0c-5.6,2.34-10.19,6.11-14,11c-2.9,4.7-4.87,9.37-6,14c-3.1,10.82-2.68,22.22,0,34
	c3.06,9.71,7.45,16.24,13,20c8.84,5.89,18.54,7.43,29,5C1182.09,651.53,1189.88,643.69,1194,631z"/>
	<polygon id="m" class="st0" points="444,720 472,787 474,787 502,720 502,720 510,720 510,797 503,797 503,734 476,797 470,797 
	443,734 443,797 436,797 436,720 "/>
	<polygon id="y" class="st0" points="598,720 607,720 629,756 630,756 652,720 661,720 633,764 633,797 626,797 626,764 "/>
	<path id="s" class="st0" d="M795,740h7c0.13-3.63-0.88-6.96-3-10c-3.36-4.9-8.32-8.27-15-10c-5.33-1.2-10.67-1.22-16,0
	c-4.98,1-8.85,3.14-12,6c-3.16,2.88-5.14,6.22-6,10c-0.62,3.06-0.63,6.06,0,9c1.06,3.8,3.09,6.77,6,9c4.48,3.11,9.16,5.04,14,6
	c7.94,2.04,15.62,4.07,19,6c4.54,2.43,6.96,6.05,7,11c-0.2,5.54-3,9.46-8,12c-5.57,2.89-11.93,3.49-19,2c-5.57-1.42-9.51-4.14-12-8
	c-1.38-2.31-1.95-4.65-2-7h-7c0.08,2.13,0.42,4.13,1,6c1.04,3.6,3.17,6.52,6,9c2.12,2.04,4.74,3.73,8,5c3.61,1.16,7.28,1.78,11,2
	c1.67,0.19,3.33,0.19,5,0c5.23-0.3,9.83-1.76,14-4c4.21-2.7,7.29-5.99,9-10c1.43-4.1,1.75-8.1,1-12c-1.67-6.35-5.47-10.85-12-13
	c-4.77-2.4-13.72-4.7-23-7l0,0c-6.94-2.18-11.15-6.16-11-13c0.35-4.24,2.81-7.96,8-11c4.45-2.03,9.44-2.72,15-2
	c6.29,1.1,10.58,3.8,13,8C794.06,735.77,794.75,737.76,795,740"/>
	<polygon id="e" class="st0" points="942,727 942,720 895,720 895,797 942,797 942,790 902,790 902,761 940,761 940,754 902,754 
	902,727 "/>
	<polygon id="l" class="st0" points="1035,719 1035,796 1081,796 1081,789 1042,789 1042,719 "/>
	<polyline id="f" class="st0" points="1173,797 1180,797 1180,762 1216,762 1216,756 1180,756 1180,727 1219,727 1219,720 1173,720 
	1173,797 "/>
</svg>
